<?xml version="1.0" encoding="UTF-8"?>
<!DOCTYPE svg PUBLIC "-//W3C//DTD SVG 1.1//EN" "http://www.w3.org/Graphics/SVG/1.1/DTD/svg11.dtd">
<!-- Creator: CorelDRAW -->
<svg xmlns="http://www.w3.org/2000/svg" xml:space="preserve" width="20mm" height="20mm" version="1.1" style="shape-rendering:geometricPrecision; text-rendering:geometricPrecision; image-rendering:optimizeQuality; fill-rule:evenodd; clip-rule:evenodd"
viewBox="0 0 2000 2000"
 xmlns:xlink="http://www.w3.org/1999/xlink"
 xmlns:xodm="http://www.corel.com/coreldraw/odm/2003">
 <defs>
  <style type="text/css">
   <![CDATA[
    .fil2 {fill:#34A853}
    .fil0 {fill:#4285F4}
    .fil3 {fill:#E43935}
    .fil4 {fill:#F7F6F6}
    .fil1 {fill:#FBBB05}
   ]]>
  </style>
 </defs>
 <g id="Camada_x0020_1">
  <metadata id="CorelCorpID_0Corel-Layer"/>
  <g id="_2936021788064">
   <path class="fil0" d="M1506.62 1494.66c-95.19,11.77 -339.73,6.04 -451.18,4.7l1.83 -113.58 452.15 3.03 -2.8 105.85zm28.68 -212.84l-480.07 -0.51 0.2 -113.89 470.48 -0.45c56.16,0 55.71,8.64 55.71,66.5 0,42.35 -2.3,48.35 -46.32,48.35zm-75.13 -216.47l-403.84 -0.41 -0.22 -113.62 404.06 -0.49c78.18,-0.01 78.03,114.52 0,114.52zm-683.95 29.76c-67.73,-30.96 -118.97,-60.84 -197.15,-10.04 -52.82,34.32 -83.79,101.87 -67.47,176.89 33.44,153.73 266.72,179.07 302.3,19.93l-145.88 -0.1 1.99 -104.07 254.37 0.12c61.23,340.08 -356.57,416.07 -491.72,181.44 -158.48,-275.14 198.83,-549.2 415.39,-341.81l-71.83 77.64zm-560.66 237.35c2.16,103.62 -12.23,415.59 11.72,485.7 58.09,20.3 1455.98,22.4 1528.45,1.54 21.57,-65.21 7.26,-215.02 10.36,-297.36 -4.02,-117.78 20.33,-828.84 -16.85,-868.43 -32.68,-43.57 -170.86,-21.97 -232.72,-21.97 -86.93,0.01 -173.85,-0.1 -260.77,0.11l-791.08 -0.06c-341.51,0 -232.41,-79.94 -249.11,700.47z"/>
   <path class="fil1" d="M397.94 512.26c-43.16,27.99 -205.81,78.72 -264.25,99.88 -215.99,78.18 -167.6,13.81 32.88,590.74 12.57,36.19 43.44,104.32 48.99,129.58 16.7,-780.41 -92.4,-700.47 249.11,-700.47l791.08 0.06 -77.57 -222.72c-21.7,-62.23 -31.88,-118.21 -66.88,-135.25 -50.27,-24.48 -573.62,203.87 -713.36,238.18z"/>
   <path class="fil2" d="M397.94 512.26c139.74,-34.31 663.09,-262.66 713.36,-238.18 35,17.04 45.18,73.02 66.88,135.25l405.63 105.93c0.6,-74.21 9.5,-262.32 -10.48,-315.36 -50.2,-21.89 -1060.34,-26.5 -1153.72,-6.47 -43.55,65.85 -19.35,222.97 -21.67,318.83z"/>
   <path class="fil3" d="M1255.75 632.05c86.92,-0.21 173.84,-0.1 260.77,-0.11 61.86,0 200.04,-21.6 232.72,21.97 37.18,39.59 12.83,750.65 16.85,868.43l174.05 -644.93c60.96,-226.53 88.49,-241.58 -29.87,-272.54 -96.37,-25.19 -240.01,-56.07 -326.46,-89.61l-405.63 -105.93 77.57 222.72z"/>
   <path class="fil4" d="M848.05 1017.47c-216.56,-207.39 -573.87,66.67 -415.39,341.81 135.15,234.63 552.95,158.64 491.72,-181.44l-254.37 -0.12 -1.99 104.07 145.88 0.1c-35.58,159.14 -268.86,133.8 -302.3,-19.93 -16.32,-75.02 14.65,-142.57 67.47,-176.89 78.18,-50.8 129.42,-20.92 197.15,10.04l71.83 -77.64z"/>
   <path class="fil4" d="M1535.3 1281.82c44.02,0 46.32,-6 46.32,-48.35 0,-57.86 0.45,-66.5 -55.71,-66.5l-470.48 0.45 -0.2 113.89 480.07 0.51z"/>
   <path class="fil4" d="M1460.17 1065.35c78.03,0 78.18,-114.53 0,-114.52l-404.06 0.49 0.22 113.62 403.84 0.41z"/>
   <path class="fil4" d="M1509.42 1388.81l-452.15 -3.03 -1.83 113.58c111.45,1.34 355.99,7.07 451.18,-4.7l2.8 -105.85z"/>
  </g>
 </g>
</svg>
